<mxfile host="app.diagrams.net" modified="2022-02-07T10:00:08.390Z" agent="5.0 (X11)" etag="pcBmMu_o5nWQi9hlUKez" version="16.5.2" type="github">
  <diagram id="bH2xgzkf1_p3QHETKtJT" name="Page-1">
    <mxGraphModel dx="653" dy="910" grid="1" gridSize="10" guides="1" tooltips="1" connect="1" arrows="1" fold="1" page="1" pageScale="1" pageWidth="850" pageHeight="1100" math="0" shadow="0">
      <root>
        <mxCell id="0" />
        <mxCell id="1" parent="0" />
        <mxCell id="Xnhx09M0OD6a86ZJEKQ_-13" style="edgeStyle=orthogonalEdgeStyle;rounded=0;orthogonalLoop=1;jettySize=auto;html=1;exitX=0.5;exitY=1;exitDx=0;exitDy=0;" parent="1" source="Xnhx09M0OD6a86ZJEKQ_-1" target="Xnhx09M0OD6a86ZJEKQ_-11" edge="1">
          <mxGeometry relative="1" as="geometry" />
        </mxCell>
        <mxCell id="Xnhx09M0OD6a86ZJEKQ_-14" style="edgeStyle=orthogonalEdgeStyle;rounded=0;orthogonalLoop=1;jettySize=auto;html=1;exitX=1;exitY=0.5;exitDx=0;exitDy=0;entryX=0.5;entryY=0;entryDx=0;entryDy=0;" parent="1" source="Xnhx09M0OD6a86ZJEKQ_-1" target="Xnhx09M0OD6a86ZJEKQ_-6" edge="1">
          <mxGeometry relative="1" as="geometry" />
        </mxCell>
        <mxCell id="Xnhx09M0OD6a86ZJEKQ_-15" style="edgeStyle=orthogonalEdgeStyle;rounded=0;orthogonalLoop=1;jettySize=auto;html=1;exitX=1;exitY=1;exitDx=0;exitDy=0;entryX=0.5;entryY=0;entryDx=0;entryDy=0;" parent="1" source="Xnhx09M0OD6a86ZJEKQ_-1" target="Xnhx09M0OD6a86ZJEKQ_-5" edge="1">
          <mxGeometry relative="1" as="geometry" />
        </mxCell>
        <mxCell id="Xnhx09M0OD6a86ZJEKQ_-20" style="edgeStyle=orthogonalEdgeStyle;rounded=0;orthogonalLoop=1;jettySize=auto;html=1;exitX=0;exitY=0.5;exitDx=0;exitDy=0;" parent="1" source="Xnhx09M0OD6a86ZJEKQ_-1" target="Xnhx09M0OD6a86ZJEKQ_-2" edge="1">
          <mxGeometry relative="1" as="geometry" />
        </mxCell>
        <mxCell id="Xnhx09M0OD6a86ZJEKQ_-1" value="Cabeza" style="ellipse;whiteSpace=wrap;html=1;fillColor=#9933FF;" parent="1" vertex="1">
          <mxGeometry x="140" y="120" width="80" height="50" as="geometry" />
        </mxCell>
        <mxCell id="Xnhx09M0OD6a86ZJEKQ_-2" value="Esfera" style="ellipse;whiteSpace=wrap;html=1;fillColor=#8CFFF7;" parent="1" vertex="1">
          <mxGeometry x="40" y="370" width="80" height="50" as="geometry" />
        </mxCell>
        <mxCell id="Xnhx09M0OD6a86ZJEKQ_-3" value="Tetraedro" style="ellipse;whiteSpace=wrap;html=1;fillColor=#8CFFF7;" parent="1" vertex="1">
          <mxGeometry x="200" y="370" width="80" height="50" as="geometry" />
        </mxCell>
        <mxCell id="Xnhx09M0OD6a86ZJEKQ_-4" value="Cubo" style="ellipse;whiteSpace=wrap;html=1;fillColor=#8CFFF7;" parent="1" vertex="1">
          <mxGeometry x="370" y="370" width="80" height="50" as="geometry" />
        </mxCell>
        <mxCell id="Xnhx09M0OD6a86ZJEKQ_-16" style="edgeStyle=orthogonalEdgeStyle;rounded=0;orthogonalLoop=1;jettySize=auto;html=1;exitX=0.5;exitY=1;exitDx=0;exitDy=0;" parent="1" source="Xnhx09M0OD6a86ZJEKQ_-5" target="Xnhx09M0OD6a86ZJEKQ_-12" edge="1">
          <mxGeometry relative="1" as="geometry" />
        </mxCell>
        <mxCell id="Xnhx09M0OD6a86ZJEKQ_-5" value="T40,-5,-40}" style="ellipse;whiteSpace=wrap;html=1;fillColor=#B9E0A5;" parent="1" vertex="1">
          <mxGeometry x="310" y="210" width="80" height="50" as="geometry" />
        </mxCell>
        <mxCell id="8W_9MzMiLuGlS2uiaAWO-2" style="edgeStyle=orthogonalEdgeStyle;rounded=0;orthogonalLoop=1;jettySize=auto;html=1;exitX=0.5;exitY=1;exitDx=0;exitDy=0;" edge="1" parent="1" source="Xnhx09M0OD6a86ZJEKQ_-6" target="Xnhx09M0OD6a86ZJEKQ_-5">
          <mxGeometry relative="1" as="geometry" />
        </mxCell>
        <mxCell id="Xnhx09M0OD6a86ZJEKQ_-6" value="T[-80,0,0}" style="ellipse;whiteSpace=wrap;html=1;fillColor=#B9E0A5;" parent="1" vertex="1">
          <mxGeometry x="310" y="80" width="80" height="50" as="geometry" />
        </mxCell>
        <mxCell id="Xnhx09M0OD6a86ZJEKQ_-19" style="edgeStyle=orthogonalEdgeStyle;rounded=0;orthogonalLoop=1;jettySize=auto;html=1;exitX=0.5;exitY=1;exitDx=0;exitDy=0;" parent="1" source="Xnhx09M0OD6a86ZJEKQ_-11" target="Xnhx09M0OD6a86ZJEKQ_-3" edge="1">
          <mxGeometry relative="1" as="geometry" />
        </mxCell>
        <mxCell id="Xnhx09M0OD6a86ZJEKQ_-11" value="T[0,0,25}" style="ellipse;whiteSpace=wrap;html=1;fillColor=#B9E0A5;" parent="1" vertex="1">
          <mxGeometry x="190" y="220" width="80" height="50" as="geometry" />
        </mxCell>
        <mxCell id="Xnhx09M0OD6a86ZJEKQ_-18" style="edgeStyle=orthogonalEdgeStyle;rounded=0;orthogonalLoop=1;jettySize=auto;html=1;exitX=0.5;exitY=1;exitDx=0;exitDy=0;" parent="1" source="Xnhx09M0OD6a86ZJEKQ_-12" target="Xnhx09M0OD6a86ZJEKQ_-4" edge="1">
          <mxGeometry relative="1" as="geometry" />
        </mxCell>
        <mxCell id="Xnhx09M0OD6a86ZJEKQ_-12" value="E[0.5, 3, 0.5]" style="ellipse;whiteSpace=wrap;html=1;fillColor=#B9E0A5;" parent="1" vertex="1">
          <mxGeometry x="360" y="300" width="80" height="50" as="geometry" />
        </mxCell>
      </root>
    </mxGraphModel>
  </diagram>
</mxfile>
